<svg xmlns="http://www.w3.org/2000/svg" xmlns:xlink="http://www.w3.org/1999/xlink" width="500" zoomAndPan="magnify" viewBox="0 0 375 374.999991" height="500" preserveAspectRatio="xMidYMid meet" version="1.0"><defs><g/><clipPath id="8b100128d0"><rect x="0" width="241" y="0" height="93"/></clipPath><clipPath id="de17dd759c"><path d="M 242 165.085938 L 248 165.085938 L 248 170 L 242 170 Z M 242 165.085938 " clip-rule="nonzero"/></clipPath><clipPath id="2a7b6fea22"><path d="M 181.164062 168 L 374.664062 168 L 374.664062 252.085938 L 181.164062 252.085938 Z M 181.164062 168 " clip-rule="nonzero"/></clipPath><clipPath id="3c6a85c173"><path d="M 183 167 L 221 167 L 221 207 L 183 207 Z M 183 167 " clip-rule="nonzero"/></clipPath><clipPath id="b60b8b251a"><path d="M 184.03125 165.023438 L 221.441406 167.644531 L 218.558594 208.792969 L 181.148438 206.171875 Z M 184.03125 165.023438 " clip-rule="nonzero"/></clipPath><clipPath id="9dcfb5a805"><path d="M 184.03125 165.023438 L 221.441406 167.644531 L 218.558594 208.792969 L 181.148438 206.171875 Z M 184.03125 165.023438 " clip-rule="nonzero"/></clipPath><clipPath id="ce842ccec0"><path d="M 184.03125 165.023438 L 221.441406 167.644531 L 218.558594 208.792969 L 181.148438 206.171875 Z M 184.03125 165.023438 " clip-rule="nonzero"/></clipPath><clipPath id="d9364fbea5"><rect x="0" width="175" y="0" height="50"/></clipPath><clipPath id="d11ce4cd91"><path d="M 0 152.347656 L 185.25 152.347656 L 185.25 227.347656 L 0 227.347656 Z M 0 152.347656 " clip-rule="nonzero"/></clipPath></defs><rect x="-37.5" width="450" fill="#ffffff" y="-37.499999" height="449.999989" fill-opacity="1"/><rect x="-37.5" width="450" fill="#ffffff" y="-37.499999" height="449.999989" fill-opacity="1"/><g transform="matrix(1, 0, 0, 1, 75, 59)"><g clip-path="url(#8b100128d0)"><g fill="#3d3b3a" fill-opacity="1"><g transform="translate(14.112548, 90.083105)"><g><path d="M -3.546875 -10.9375 C -2.921875 -11.570312 -2.234375 -11.988281 -1.484375 -12.1875 C -0.734375 -12.394531 0.00390625 -12.335938 0.734375 -12.015625 C 1.578125 -11.648438 2.191406 -11.140625 2.578125 -10.484375 C 2.960938 -9.828125 3.140625 -9.101562 3.109375 -8.3125 C 3.085938 -7.519531 2.90625 -6.722656 2.5625 -5.921875 L 0.84375 -1.9375 L -12.578125 -7.734375 L -11.078125 -11.203125 C -10.484375 -12.578125 -9.742188 -13.519531 -8.859375 -14.03125 C -7.972656 -14.550781 -6.96875 -14.566406 -5.84375 -14.078125 C -5.132812 -13.773438 -4.585938 -13.351562 -4.203125 -12.8125 C -3.816406 -12.269531 -3.597656 -11.644531 -3.546875 -10.9375 Z M -5.953125 -7 L -5.0625 -9.046875 C -4.757812 -9.734375 -4.726562 -10.335938 -4.96875 -10.859375 C -5.21875 -11.390625 -5.65625 -11.789062 -6.28125 -12.0625 C -6.957031 -12.351562 -7.550781 -12.359375 -8.0625 -12.078125 C -8.582031 -11.804688 -9.003906 -11.296875 -9.328125 -10.546875 L -10.09375 -8.796875 Z M 0.859375 -6.5625 C 1.191406 -7.351562 1.296875 -8.078125 1.171875 -8.734375 C 1.046875 -9.390625 0.640625 -9.867188 -0.046875 -10.171875 C -0.742188 -10.472656 -1.378906 -10.421875 -1.953125 -10.015625 C -2.535156 -9.609375 -3 -9.015625 -3.34375 -8.234375 L -4.203125 -6.25 L -0.0625 -4.453125 Z M 0.859375 -6.5625 "/></g></g></g><g fill="#3d3b3a" fill-opacity="1"><g transform="translate(20.629398, 75.487212)"><g><path d="M 1.890625 -10.328125 L -1.078125 -5.546875 L 1.375 -2.203125 L 0.34375 -0.546875 L -9.21875 -14.03125 L -9.15625 -14.125 L 7.171875 -11.515625 L 5.96875 -9.59375 Z M 0.109375 -10.671875 L -5.546875 -11.703125 L -2.140625 -7.0625 Z M 0.109375 -10.671875 "/></g></g></g><g fill="#3d3b3a" fill-opacity="1"><g transform="translate(30.21955, 60.693989)"><g><path d="M -8.484375 -12.578125 L 1.1875 -4.328125 L 6.015625 -10 L 7.46875 -8.765625 L 1.375 -1.609375 L -9.75 -11.09375 Z M -8.484375 -12.578125 "/></g></g></g><g fill="#3d3b3a" fill-opacity="1"><g transform="translate(40.792075, 48.623623)"><g><path d="M -2.21875 -8.703125 L -2.28125 -9.15625 L -1.859375 -17.765625 L 0.046875 -19.4375 L -0.40625 -10.75 L 9.921875 -8.640625 L 8.03125 -7 L -0.65625 -8.859375 L -0.796875 -7.140625 L 3.09375 -2.703125 L 1.59375 -1.390625 L -8.015625 -12.40625 L -6.515625 -13.71875 L -2.640625 -9.28125 Z M -2.21875 -8.703125 "/></g></g></g><g fill="#3d3b3a" fill-opacity="1"><g transform="translate(53.93664, 37.528475)"><g><path d="M 8.5625 -5.453125 L 2.765625 -8.171875 C 2.679688 -8.085938 2.550781 -7.988281 2.375 -7.875 L 0.53125 -6.71875 L 3.421875 -2.1875 L 1.78125 -1.125 L -6.0625 -13.46875 L -2.765625 -15.578125 C -1.929688 -16.109375 -1.085938 -16.4375 -0.234375 -16.5625 C 0.609375 -16.6875 1.398438 -16.578125 2.140625 -16.234375 C 2.878906 -15.898438 3.503906 -15.328125 4.015625 -14.515625 C 4.503906 -13.753906 4.785156 -12.945312 4.859375 -12.09375 C 4.929688 -11.25 4.722656 -10.441406 4.234375 -9.671875 L 10.5 -6.671875 Z M 1.3125 -9.46875 C 2.195312 -10.03125 2.6875 -10.671875 2.78125 -11.390625 C 2.882812 -12.109375 2.742188 -12.769531 2.359375 -13.375 C 2.128906 -13.726562 1.816406 -14.03125 1.421875 -14.28125 C 1.023438 -14.539062 0.570312 -14.671875 0.0625 -14.671875 C -0.4375 -14.671875 -0.957031 -14.492188 -1.5 -14.140625 L -3.421875 -12.9375 L -0.484375 -8.328125 Z M 1.3125 -9.46875 "/></g></g></g><g fill="#3d3b3a" fill-opacity="1"><g transform="translate(68.429776, 28.807344)"><g><path d="M -2.6875 -14.9375 L 3.65625 -1.765625 L 1.90625 -0.921875 L -4.4375 -14.09375 Z M -2.6875 -14.9375 "/></g></g></g><g fill="#3d3b3a" fill-opacity="1"><g transform="translate(77.255524, 24.608398)"><g><path d="M 5.15625 -14.546875 C 4.570312 -14.628906 3.96875 -14.65625 3.34375 -14.625 C 2.726562 -14.59375 2.171875 -14.492188 1.671875 -14.328125 C 0.929688 -14.054688 0.394531 -13.675781 0.0625 -13.1875 C -0.257812 -12.695312 -0.316406 -12.164062 -0.109375 -11.59375 C 0.0859375 -11.019531 0.507812 -10.640625 1.15625 -10.453125 C 1.800781 -10.265625 2.65625 -10.160156 3.71875 -10.140625 C 4.53125 -10.140625 5.234375 -10.078125 5.828125 -9.953125 C 6.429688 -9.828125 6.988281 -9.550781 7.5 -9.125 C 8.007812 -8.707031 8.40625 -8.09375 8.6875 -7.28125 C 8.945312 -6.539062 8.992188 -5.804688 8.828125 -5.078125 C 8.660156 -4.359375 8.296875 -3.707031 7.734375 -3.125 C 7.179688 -2.550781 6.445312 -2.101562 5.53125 -1.78125 C 4.675781 -1.476562 3.804688 -1.320312 2.921875 -1.3125 C 2.035156 -1.300781 1.21875 -1.40625 0.46875 -1.625 L 0.78125 -3.375 C 1.382812 -3.1875 2.0625 -3.082031 2.8125 -3.0625 C 3.5625 -3.050781 4.222656 -3.144531 4.796875 -3.34375 C 5.535156 -3.601562 6.113281 -4.019531 6.53125 -4.59375 C 6.945312 -5.175781 7.023438 -5.84375 6.765625 -6.59375 C 6.535156 -7.226562 6.125 -7.648438 5.53125 -7.859375 C 4.9375 -8.078125 4.160156 -8.207031 3.203125 -8.25 C 2.328125 -8.269531 1.582031 -8.328125 0.96875 -8.421875 C 0.351562 -8.523438 -0.222656 -8.753906 -0.765625 -9.109375 C -1.304688 -9.460938 -1.707031 -10.015625 -1.96875 -10.765625 C -2.34375 -11.847656 -2.269531 -12.851562 -1.75 -13.78125 C -1.226562 -14.71875 -0.367188 -15.414062 0.828125 -15.875 C 2.316406 -16.394531 3.828125 -16.507812 5.359375 -16.21875 Z M 5.15625 -14.546875 "/></g></g></g><g fill="#3d3b3a" fill-opacity="1"><g transform="translate(91.658455, 19.678538)"><g><path d="M 13.46875 -2.515625 L 11.53125 -2.15625 L 10.359375 -8.46875 L 2.828125 -7.0625 L 4 -0.75 L 2.078125 -0.390625 L -0.609375 -14.765625 L 1.3125 -15.125 L 2.484375 -8.90625 L 10.015625 -10.3125 L 8.84375 -16.53125 L 10.78125 -16.890625 Z M 13.46875 -2.515625 "/></g></g></g><g fill="#3d3b3a" fill-opacity="1"><g transform="translate(110.541617, 16.405783)"><g><path d="M 14.71875 -14.765625 L 14.859375 0.34375 L 14.796875 0.34375 L 3.953125 -10.453125 L 4.09375 -0.03125 L 2.109375 -0.015625 L 1.96875 -15.09375 L 2.0625 -15.09375 L 12.90625 -4.171875 L 12.75 -14.75 Z M 14.71875 -14.765625 "/></g></g></g><g fill="#3d3b3a" fill-opacity="1"><g transform="translate(130.871091, 16.61198)"><g><path d="M 10.25 -2.25 L 4.703125 -3.140625 L 2.5625 0.40625 L 0.625 0.09375 L 9.359375 -13.9375 L 9.46875 -13.921875 L 13.390625 2.140625 L 11.15625 1.78125 Z M 9.875 -4.046875 L 8.640625 -9.640625 L 5.671875 -4.71875 Z M 9.875 -4.046875 "/></g></g></g><g fill="#3d3b3a" fill-opacity="1"><g transform="translate(148.297078, 19.85472)"><g/></g></g><g fill="#3d3b3a" fill-opacity="1"><g transform="translate(157.866417, 22.579565)"><g><path d="M 10.40625 4.46875 L 9.921875 2.484375 C 9.316406 2.828125 8.625 3.015625 7.84375 3.046875 C 7.0625 3.078125 6.253906 2.910156 5.421875 2.546875 C 4.578125 2.179688 3.890625 1.679688 3.359375 1.046875 C 2.835938 0.410156 2.515625 -0.285156 2.390625 -1.046875 C 2.265625 -1.816406 2.363281 -2.582031 2.6875 -3.34375 C 2.957031 -3.96875 3.367188 -4.484375 3.921875 -4.890625 C 4.472656 -5.296875 5.097656 -5.570312 5.796875 -5.71875 C 6.492188 -5.875 7.195312 -5.894531 7.90625 -5.78125 L 7.640625 -6.828125 C 7.410156 -8.035156 7.453125 -9.003906 7.765625 -9.734375 C 7.992188 -10.265625 8.34375 -10.707031 8.8125 -11.0625 C 9.28125 -11.414062 9.828125 -11.625 10.453125 -11.6875 C 11.085938 -11.757812 11.738281 -11.648438 12.40625 -11.359375 C 13.082031 -11.066406 13.65625 -10.660156 14.125 -10.140625 C 14.59375 -9.617188 14.9375 -9.0625 15.15625 -8.46875 L 13.734375 -7.625 C 13.210938 -8.75 12.640625 -9.445312 12.015625 -9.71875 C 11.492188 -9.9375 11.003906 -9.953125 10.546875 -9.765625 C 10.097656 -9.578125 9.773438 -9.25 9.578125 -8.78125 C 9.378906 -8.332031 9.347656 -7.710938 9.484375 -6.921875 L 11.03125 -0.640625 L 13.734375 -3.4375 L 15.421875 -2.71875 L 11.5 1.234375 L 12.515625 5.375 Z M 6.34375 1.03125 C 6.9375 1.28125 7.503906 1.378906 8.046875 1.328125 C 8.597656 1.285156 9.085938 1.117188 9.515625 0.828125 L 8.328125 -4.09375 C 7.859375 -4.257812 7.375 -4.3125 6.875 -4.25 C 6.375 -4.1875 5.914062 -4.007812 5.5 -3.71875 C 5.09375 -3.425781 4.789062 -3.050781 4.59375 -2.59375 C 4.289062 -1.894531 4.304688 -1.203125 4.640625 -0.515625 C 4.984375 0.171875 5.550781 0.6875 6.34375 1.03125 Z M 6.34375 1.03125 "/></g></g></g><g fill="#3d3b3a" fill-opacity="1"><g transform="translate(174.413256, 30.209947)"><g/></g></g><g fill="#3d3b3a" fill-opacity="1"><g transform="translate(183.01325, 35.431175)"><g><path d="M 5.828125 0.9375 C 5.148438 1.882812 4.382812 2.566406 3.53125 2.984375 C 2.675781 3.410156 1.796875 3.570312 0.890625 3.46875 C -0.00390625 3.375 -0.875 3.046875 -1.71875 2.484375 L -0.609375 0.9375 C 0.234375 1.476562 1.078125 1.660156 1.921875 1.484375 C 2.773438 1.304688 3.5625 0.722656 4.28125 -0.265625 L 11.234375 -9.921875 L 12.828125 -8.765625 Z M 5.828125 0.9375 "/></g></g></g><g fill="#3d3b3a" fill-opacity="1"><g transform="translate(191.877242, 41.830985)"><g><path d="M 19.796875 -1.546875 L 9.140625 1.859375 L 5.8125 5.421875 L 4.375 4.078125 L 7.703125 0.515625 L 10.375 -10.3125 L 12.15625 -8.65625 L 9.96875 -0.421875 L 18.03125 -3.1875 Z M 19.796875 -1.546875 "/></g></g></g><g fill="#3d3b3a" fill-opacity="1"><g transform="translate(204.49755, 53.797027)"><g><path d="M 6.515625 -3.484375 C 7.585938 -4.296875 8.785156 -4.78125 10.109375 -4.9375 C 11.429688 -5.09375 12.707031 -4.921875 13.9375 -4.421875 C 15.175781 -3.929688 16.203125 -3.15625 17.015625 -2.09375 C 17.828125 -1.03125 18.3125 0.160156 18.46875 1.484375 C 18.625 2.816406 18.445312 4.097656 17.9375 5.328125 C 17.4375 6.566406 16.648438 7.59375 15.578125 8.40625 C 14.515625 9.21875 13.320312 9.703125 12 9.859375 C 10.6875 10.023438 9.414062 9.847656 8.1875 9.328125 C 6.957031 8.816406 5.9375 8.03125 5.125 6.96875 C 4.3125 5.90625 3.816406 4.71875 3.640625 3.40625 C 3.472656 2.09375 3.632812 0.828125 4.125 -0.390625 C 4.625 -1.617188 5.421875 -2.648438 6.515625 -3.484375 Z M 7.75 -1.859375 C 6.945312 -1.242188 6.351562 -0.488281 5.96875 0.40625 C 5.59375 1.300781 5.460938 2.238281 5.578125 3.21875 C 5.691406 4.195312 6.050781 5.082031 6.65625 5.875 C 7.257812 6.664062 8.007812 7.238281 8.90625 7.59375 C 9.800781 7.957031 10.734375 8.070312 11.703125 7.9375 C 12.671875 7.800781 13.554688 7.425781 14.359375 6.8125 C 15.171875 6.1875 15.769531 5.421875 16.15625 4.515625 C 16.550781 3.609375 16.691406 2.671875 16.578125 1.703125 C 16.472656 0.734375 16.117188 -0.148438 15.515625 -0.953125 C 14.910156 -1.742188 14.15625 -2.316406 13.25 -2.671875 C 12.34375 -3.023438 11.398438 -3.128906 10.421875 -2.984375 C 9.441406 -2.835938 8.550781 -2.460938 7.75 -1.859375 Z M 7.75 -1.859375 "/></g></g></g><g fill="#3d3b3a" fill-opacity="1"><g transform="translate(216.679117, 70.586065)"><g><path d="M 17.96875 2.5625 L 16.3125 3.4375 L 14.453125 -0.03125 L 3.21875 6 L 2.296875 4.28125 L 13.53125 -1.75 L 11.71875 -5.125 L 13.375 -6 Z M 17.96875 2.5625 "/></g></g></g><g fill="#3d3b3a" fill-opacity="1"><g transform="translate(223.630312, 84.284682)"><g><path d="M 15.09375 -1.671875 L 1.515625 3.765625 L 0.78125 1.953125 L 14.359375 -3.484375 Z M 15.09375 -1.671875 "/></g></g></g></g></g><g clip-path="url(#de17dd759c)"><path fill="#231f20" d="M 244.398438 169.484375 C 245.019531 169.3125 245.609375 169.152344 246.121094 169.011719 C 246.878906 168.164062 247.554688 167.378906 247.113281 166.136719 C 246.621094 165.820312 246.109375 165.484375 245.5625 165.125 C 244.179688 165.105469 243.1875 165.453125 242.714844 166.648438 C 242.386719 167.480469 242.617188 168.257812 243.046875 169.050781 C 243.507812 169.199219 243.960938 169.339844 244.398438 169.480469 Z M 244.398438 169.484375 " fill-opacity="1" fill-rule="nonzero"/></g><g clip-path="url(#2a7b6fea22)"><path fill="#231f20" d="M 373.480469 172.65625 C 372.554688 171.410156 371.308594 170.757812 369.945312 170.199219 C 367.320312 169.132812 364.535156 168.898438 361.757812 168.757812 C 357.371094 168.53125 352.988281 168.683594 348.597656 168.878906 C 340.4375 169.238281 332.328125 170.09375 324.273438 171.308594 C 317.660156 172.304688 311.074219 173.449219 304.519531 174.800781 C 296.597656 176.4375 288.765625 178.40625 280.988281 180.601562 C 274.894531 182.320312 268.882812 184.332031 262.929688 186.496094 C 254.152344 189.691406 245.511719 193.214844 237.125 197.339844 C 236.652344 197.570312 236.132812 197.730469 235.660156 197.910156 C 235.320312 197.484375 235.507812 197.164062 235.625 196.847656 C 236.230469 195.214844 236.878906 193.597656 237.449219 191.957031 C 238.558594 188.800781 239.566406 185.609375 240.742188 182.476562 C 241.425781 180.648438 242.101562 178.820312 242.496094 176.875 C 242.292969 176.242188 242.085938 175.582031 241.875 174.902344 C 241.589844 174.789062 241.34375 174.664062 241.074219 174.59375 C 240.746094 174.503906 240.40625 174.453125 240.214844 174.417969 C 239.367188 174.601562 239.03125 175.128906 238.710938 175.679688 C 237.941406 177.019531 237.617188 178.53125 237.132812 179.980469 C 236.585938 181.628906 236.085938 183.292969 235.574219 184.960938 C 235.359375 185.6875 235.074219 186.378906 235.304688 187.199219 C 235.429688 187.625 235.335938 188.175781 235.1875 188.617188 C 234.300781 191.183594 233.644531 193.824219 232.605469 196.339844 C 232.132812 197.488281 231.773438 198.691406 231.320312 199.96875 C 231.0625 200.164062 230.757812 200.457031 230.398438 200.65625 C 228.199219 201.867188 225.972656 203.023438 223.792969 204.265625 C 221.363281 205.636719 218.9375 207.011719 216.589844 208.503906 C 212.46875 211.113281 208.472656 213.882812 204.570312 216.820312 C 199.207031 220.847656 194.167969 225.207031 189.691406 230.230469 C 187.117188 233.121094 185.066406 236.335938 183.40625 239.816406 C 182.34375 242.039062 181.726562 244.398438 181.53125 246.859375 C 181.296875 249.777344 183.261719 251.933594 186.21875 252.066406 C 187.347656 252.113281 188.460938 252.035156 189.527344 251.6875 C 190.785156 251.277344 192.058594 250.878906 193.238281 250.289062 C 195.222656 249.289062 197.183594 248.226562 199.070312 247.042969 C 203.273438 244.402344 207.089844 241.261719 210.617188 237.761719 C 212.941406 235.457031 215.042969 232.964844 217.042969 230.367188 C 219.179688 227.601562 221.050781 224.671875 222.835938 221.675781 C 223.652344 220.304688 224.363281 218.855469 225.210938 217.503906 C 227.511719 213.828125 229.480469 209.980469 231.445312 206.136719 C 232.015625 205.023438 232.613281 203.90625 233.039062 202.734375 C 233.417969 201.675781 233.867188 200.6875 234.609375 199.78125 C 238.972656 197.527344 243.464844 195.453125 248 193.503906 C 254.082031 190.890625 260.21875 188.417969 266.46875 186.222656 C 275.277344 183.125 284.21875 180.453125 293.273438 178.1875 C 303.761719 175.5625 314.34375 173.433594 325.054688 171.992188 C 329.613281 171.382812 334.179688 170.851562 338.757812 170.355469 C 340.96875 170.113281 343.195312 169.988281 345.425781 169.898438 C 348.554688 169.777344 351.691406 169.683594 354.824219 169.683594 C 358.167969 169.683594 361.515625 169.746094 364.828125 170.292969 C 366.6875 170.597656 368.527344 171.011719 370.167969 171.996094 C 371.285156 172.667969 372.140625 173.5625 371.984375 175.03125 C 371.964844 175.226562 371.835938 175.414062 371.769531 175.578125 C 371.234375 175.792969 370.722656 175.992188 370.296875 176.167969 C 369.871094 176.839844 369.496094 177.414062 369.164062 177.941406 C 369.433594 178.574219 369.667969 179.144531 369.9375 179.777344 C 370.511719 179.945312 371.097656 180.125 371.695312 180.304688 C 372.257812 179.898438 372.757812 179.535156 373.394531 179.074219 C 373.679688 178.121094 374.074219 177.078125 374.300781 176 C 374.546875 174.785156 374.25 173.703125 373.480469 172.660156 Z M 229.792969 203.484375 C 228.457031 206.324219 227.160156 209.175781 225.761719 211.988281 C 224.429688 214.660156 223.0625 217.316406 221.609375 219.929688 C 218.757812 225.050781 215.574219 229.945312 211.707031 234.375 C 207.789062 238.855469 203.273438 242.65625 198.394531 246.015625 C 196.046875 247.628906 193.515625 248.980469 190.832031 249.996094 C 189.527344 250.484375 188.164062 250.800781 186.773438 250.871094 C 185.40625 250.9375 184.128906 250.65625 183.289062 249.382812 C 182.238281 246.398438 183.257812 243.839844 184.25 241.304688 C 185.503906 238.09375 187.378906 235.253906 189.539062 232.59375 C 191.554688 230.113281 193.757812 227.804688 196.085938 225.601562 C 200.195312 221.71875 204.558594 218.160156 209.171875 214.914062 C 213.785156 211.675781 218.5 208.582031 223.425781 205.832031 C 225.183594 204.839844 226.929688 203.839844 228.703125 202.867188 C 229.046875 202.671875 229.433594 202.570312 229.765625 202.4375 C 230.128906 202.867188 229.933594 203.183594 229.785156 203.488281 Z M 229.792969 203.484375 " fill-opacity="1" fill-rule="nonzero"/></g><g clip-path="url(#3c6a85c173)"><g clip-path="url(#b60b8b251a)"><g clip-path="url(#9dcfb5a805)"><g clip-path="url(#ce842ccec0)"><path fill="#232323" d="M 220.023438 174.460938 C 219.410156 170.34375 216.710938 167.566406 212.90625 167.144531 C 211.011719 166.9375 209.210938 167.34375 207.503906 168.160156 C 203.394531 170.125 200.648438 173.46875 198.359375 177.277344 C 198.085938 177.726562 197.804688 178.171875 197.398438 178.824219 C 197.15625 178.273438 197.03125 177.945312 196.871094 177.640625 C 196.351562 176.640625 195.917969 175.578125 195.273438 174.664062 C 193.132812 171.632812 189.390625 171.214844 186.628906 173.703125 C 183.84375 176.210938 183.023438 179.429688 183.894531 182.96875 C 185.214844 188.308594 188.980469 191.515625 193.816406 193.679688 C 192.351562 192.558594 190.785156 191.546875 189.441406 190.292969 C 186.71875 187.761719 185.070312 184.640625 185.222656 180.816406 C 185.339844 177.851562 186.648438 175.480469 189.316406 174.035156 C 191.046875 173.097656 192.714844 173.457031 193.839844 175.070312 C 194.519531 176.039062 195.121094 177.140625 195.425781 178.273438 C 195.855469 179.875 195.949219 181.566406 196.257812 183.210938 C 196.332031 183.613281 196.679688 183.960938 196.902344 184.335938 C 197.125 184.007812 197.4375 183.710938 197.554688 183.347656 C 197.90625 182.238281 198.113281 181.082031 198.496094 179.984375 C 200.457031 174.347656 204.171875 170.421875 209.941406 168.742188 C 214.578125 167.390625 218.066406 170.335938 217.851562 175.1875 C 217.753906 177.339844 217.164062 179.351562 216.25 181.277344 C 213.839844 186.375 210.230469 190.554688 206.160156 194.347656 C 200.78125 199.359375 194.914062 203.605469 187.6875 205.589844 C 187.402344 205.671875 187.152344 205.871094 186.886719 206.015625 C 186.894531 206.113281 186.902344 206.210938 186.910156 206.308594 C 187.296875 206.402344 187.699219 206.617188 188.070312 206.566406 C 189.359375 206.394531 190.675781 206.261719 191.910156 205.875 C 195.691406 204.695312 199.152344 202.832031 202.398438 200.578125 C 208.125 196.605469 213.292969 192.042969 217.03125 186.0625 C 219.246094 182.527344 220.664062 178.746094 220.023438 174.457031 Z M 220.023438 174.460938 " fill-opacity="1" fill-rule="nonzero"/></g></g></g></g><g transform="matrix(1, 0, 0, 1, 105, 262)"><g clip-path="url(#d9364fbea5)"><g fill="#3d3b3a" fill-opacity="1"><g transform="translate(3.746024, 12.41397)"><g><path d="M 14.890625 -3.90625 L 2.890625 2.453125 L 1.296875 1.09375 L 11.671875 -4.3125 L 7.453125 -7.875 L 8.59375 -9.234375 Z M 14.890625 -3.90625 "/></g></g></g><g fill="#3d3b3a" fill-opacity="1"><g transform="translate(14.317729, 21.10106)"><g><path d="M 16.125 -5.9375 L 15.140625 -4.453125 L 12.03125 -6.5 L 5.375 3.5625 L 3.828125 2.53125 L 10.484375 -7.53125 L 7.484375 -9.515625 L 8.46875 -11 Z M 16.125 -5.9375 "/></g></g></g><g fill="#3d3b3a" fill-opacity="1"><g transform="translate(27.379701, 29.529977)"><g><path d="M 11.71875 5.5625 L 10.03125 4.765625 L 12.640625 -0.71875 L 6.078125 -3.828125 L 3.46875 1.65625 L 1.8125 0.859375 L 7.75 -11.640625 L 9.40625 -10.84375 L 6.84375 -5.4375 L 13.40625 -2.328125 L 15.96875 -7.734375 L 17.65625 -6.9375 Z M 11.71875 5.5625 "/></g></g></g><g fill="#3d3b3a" fill-opacity="1"><g transform="translate(44.986615, 37.309841)"><g/></g></g><g fill="#3d3b3a" fill-opacity="1"><g transform="translate(54.841305, 40.718354)"><g><path d="M 18.203125 -11.015625 L 15.46875 3.015625 L 13.671875 2.65625 L 15.390625 -6.140625 L 9 -0.03125 L 8.96875 -0.046875 L 5.390625 -7.84375 L 3.734375 0.71875 L 1.96875 0.375 L 4.703125 -13.65625 L 4.71875 -13.640625 L 9.5625 -2.875 L 18.1875 -11.03125 Z M 18.203125 -11.015625 "/></g></g></g><g fill="#3d3b3a" fill-opacity="1"><g transform="translate(76.754007, 44.429591)"><g><path d="M 9.359375 -3.359375 L 4.03125 -3.53125 L 2.453125 0.078125 L 0.609375 0.015625 L 7.09375 -14.21875 L 7.203125 -14.21875 L 12.828125 0.375 L 10.6875 0.3125 Z M 8.78125 -5 L 6.953125 -10.109375 L 4.75 -5.109375 Z M 8.78125 -5 "/></g></g></g><g fill="#3d3b3a" fill-opacity="1"><g transform="translate(94.57927, 44.637029)"><g><path d="M 11.0625 -15.1875 L 6.96875 -5.4375 L 7.484375 -0.859375 L 5.640625 -0.640625 L 5.125 -5.21875 L -1.046875 -13.8125 L 1.234375 -14.078125 L 5.828125 -7.421875 L 8.796875 -14.9375 Z M 11.0625 -15.1875 "/></g></g></g><g fill="#3d3b3a" fill-opacity="1"><g transform="translate(111.929485, 42.208354)"><g/></g></g><g fill="#3d3b3a" fill-opacity="1"><g transform="translate(121.925928, 39.79788)"><g><path d="M 8.515625 -4.796875 L 9.09375 -3.09375 L 0.96875 -0.328125 L 1.375 -1.125 C 2.195312 -2.789062 2.816406 -4.117188 3.234375 -5.109375 C 3.660156 -6.097656 3.972656 -7.0625 4.171875 -8 C 4.378906 -8.945312 4.363281 -9.769531 4.125 -10.46875 C 3.875 -11.207031 3.46875 -11.695312 2.90625 -11.9375 C 2.34375 -12.175781 1.742188 -12.1875 1.109375 -11.96875 C 0.617188 -11.800781 0.242188 -11.554688 -0.015625 -11.234375 C -0.285156 -10.921875 -0.441406 -10.578125 -0.484375 -10.203125 C -0.523438 -9.835938 -0.492188 -9.5 -0.390625 -9.1875 C -0.128906 -8.414062 0.320312 -7.863281 0.96875 -7.53125 L 0.234375 -6.171875 C -0.242188 -6.285156 -0.707031 -6.585938 -1.15625 -7.078125 C -1.601562 -7.566406 -1.914062 -8.066406 -2.09375 -8.578125 C -2.320312 -9.242188 -2.363281 -9.921875 -2.21875 -10.609375 C -2.070312 -11.296875 -1.742188 -11.921875 -1.234375 -12.484375 C -0.734375 -13.046875 -0.0507812 -13.472656 0.8125 -13.765625 C 1.550781 -14.015625 2.269531 -14.0625 2.96875 -13.90625 C 3.664062 -13.757812 4.269531 -13.445312 4.78125 -12.96875 C 5.289062 -12.5 5.660156 -11.914062 5.890625 -11.21875 C 6.128906 -10.53125 6.203125 -9.785156 6.109375 -8.984375 C 6.015625 -8.179688 5.828125 -7.398438 5.546875 -6.640625 C 5.273438 -5.878906 4.898438 -4.914062 4.421875 -3.75 L 4.25 -3.34375 Z M 8.515625 -4.796875 "/></g></g></g><g fill="#3d3b3a" fill-opacity="1"><g transform="translate(135.83548, 34.838657)"><g><path d="M 5.40625 -2.5625 C 4.46875 -2.101562 3.523438 -1.929688 2.578125 -2.046875 C 1.640625 -2.171875 0.757812 -2.570312 -0.0625 -3.25 C -0.882812 -3.925781 -1.582031 -4.847656 -2.15625 -6.015625 C -3.070312 -7.890625 -3.347656 -9.523438 -2.984375 -10.921875 C -2.628906 -12.316406 -1.703125 -13.367188 -0.203125 -14.078125 C 0.722656 -14.523438 1.65625 -14.691406 2.59375 -14.578125 C 3.539062 -14.472656 4.425781 -14.082031 5.25 -13.40625 C 6.082031 -12.726562 6.78125 -11.8125 7.34375 -10.65625 C 7.914062 -9.46875 8.210938 -8.335938 8.234375 -7.265625 C 8.265625 -6.191406 8.03125 -5.25 7.53125 -4.4375 C 7.039062 -3.632812 6.332031 -3.007812 5.40625 -2.5625 Z M 4.609375 -4.15625 C 5.578125 -4.625 6.140625 -5.363281 6.296875 -6.375 C 6.453125 -7.394531 6.222656 -8.550781 5.609375 -9.84375 C 4.984375 -11.082031 4.226562 -11.941406 3.34375 -12.421875 C 2.457031 -12.910156 1.53125 -12.921875 0.5625 -12.453125 C -0.40625 -11.984375 -0.960938 -11.25 -1.109375 -10.25 C -1.265625 -9.257812 -1.039062 -8.128906 -0.4375 -6.859375 C 0.1875 -5.597656 0.941406 -4.710938 1.828125 -4.203125 C 2.710938 -3.703125 3.640625 -3.6875 4.609375 -4.15625 Z M 4.609375 -4.15625 "/></g></g></g><g fill="#3d3b3a" fill-opacity="1"><g transform="translate(150.32628, 27.427659)"><g><path d="M 7.0625 -6.75 L 8.046875 -5.25 L 0.859375 -0.5625 L 1.0625 -1.4375 C 1.425781 -3.25 1.691406 -4.6875 1.859375 -5.75 C 2.035156 -6.820312 2.101562 -7.835938 2.0625 -8.796875 C 2.03125 -9.753906 1.8125 -10.546875 1.40625 -11.171875 C 0.976562 -11.816406 0.460938 -12.1875 -0.140625 -12.28125 C -0.753906 -12.375 -1.335938 -12.238281 -1.890625 -11.875 C -2.328125 -11.582031 -2.632812 -11.25 -2.8125 -10.875 C -2.988281 -10.5 -3.050781 -10.128906 -3 -9.765625 C -2.945312 -9.410156 -2.832031 -9.09375 -2.65625 -8.8125 C -2.207031 -8.132812 -1.632812 -7.703125 -0.9375 -7.515625 L -1.3125 -6.046875 C -1.800781 -6.035156 -2.320312 -6.207031 -2.875 -6.5625 C -3.425781 -6.925781 -3.851562 -7.332031 -4.15625 -7.78125 C -4.539062 -8.363281 -4.75 -9.007812 -4.78125 -9.71875 C -4.820312 -10.425781 -4.664062 -11.113281 -4.3125 -11.78125 C -3.957031 -12.445312 -3.394531 -13.03125 -2.625 -13.53125 C -1.96875 -13.957031 -1.285156 -14.179688 -0.578125 -14.203125 C 0.128906 -14.234375 0.785156 -14.082031 1.390625 -13.75 C 2.003906 -13.425781 2.507812 -12.957031 2.90625 -12.34375 C 3.3125 -11.726562 3.566406 -11.019531 3.671875 -10.21875 C 3.785156 -9.414062 3.804688 -8.609375 3.734375 -7.796875 C 3.660156 -6.992188 3.535156 -5.972656 3.359375 -4.734375 L 3.28125 -4.28125 Z M 7.0625 -6.75 "/></g></g></g><g fill="#3d3b3a" fill-opacity="1"><g transform="translate(162.523901, 19.154222)"><g><path d="M -0.703125 -9.953125 C -0.191406 -10.367188 0.394531 -10.628906 1.0625 -10.734375 C 1.726562 -10.847656 2.394531 -10.78125 3.0625 -10.53125 C 3.738281 -10.289062 4.316406 -9.882812 4.796875 -9.3125 C 5.328125 -8.675781 5.640625 -7.976562 5.734375 -7.21875 C 5.828125 -6.46875 5.722656 -5.738281 5.421875 -5.03125 C 5.128906 -4.332031 4.691406 -3.738281 4.109375 -3.25 C 3.460938 -2.695312 2.742188 -2.359375 1.953125 -2.234375 C 1.171875 -2.117188 0.390625 -2.21875 -0.390625 -2.53125 C -1.179688 -2.851562 -1.898438 -3.40625 -2.546875 -4.1875 C -3.523438 -5.34375 -4.023438 -6.769531 -4.046875 -8.46875 C -4.066406 -10.175781 -3.773438 -12.003906 -3.171875 -13.953125 L -1.328125 -13.703125 C -1.835938 -12.546875 -2.148438 -11.4375 -2.265625 -10.375 C -2.378906 -9.3125 -2.316406 -8.359375 -2.078125 -7.515625 C -1.984375 -8.441406 -1.523438 -9.253906 -0.703125 -9.953125 Z M 3 -4.484375 C 3.550781 -4.953125 3.859375 -5.523438 3.921875 -6.203125 C 3.992188 -6.878906 3.789062 -7.503906 3.3125 -8.078125 C 2.84375 -8.640625 2.273438 -8.9375 1.609375 -8.96875 C 0.941406 -9.007812 0.332031 -8.796875 -0.21875 -8.328125 C -0.570312 -8.023438 -0.835938 -7.671875 -1.015625 -7.265625 C -1.191406 -6.859375 -1.253906 -6.453125 -1.203125 -6.046875 C -1.160156 -5.648438 -1.007812 -5.296875 -0.75 -4.984375 L -0.53125 -4.734375 C -0.25 -4.390625 0.09375 -4.144531 0.5 -4 C 0.914062 -3.863281 1.347656 -3.832031 1.796875 -3.90625 C 2.242188 -3.988281 2.644531 -4.179688 3 -4.484375 Z M 3 -4.484375 "/></g></g></g></g></g><g clip-path="url(#d11ce4cd91)"><path fill="#231f20" d="M 184.757812 189.925781 C 184.136719 189.519531 183.460938 189.265625 182.710938 189.253906 C 181.835938 189.242188 180.964844 189.207031 180.089844 189.242188 C 176.335938 189.386719 172.746094 190.363281 169.167969 191.375 C 166.304688 192.1875 163.46875 193.105469 160.621094 193.976562 C 160.042969 193.738281 159.714844 193.253906 159.5 192.707031 C 159.179688 191.890625 158.535156 191.5 157.785156 191.140625 C 157.113281 190.8125 156.402344 190.691406 155.683594 190.632812 C 154.203125 190.503906 152.796875 190.886719 151.40625 191.316406 C 148.535156 192.203125 145.921875 193.648438 143.359375 195.144531 C 139.195312 197.570312 135.304688 200.402344 131.667969 203.578125 C 131.308594 203.886719 130.855469 204.089844 130.207031 204.492188 C 130.277344 203.945312 130.214844 203.585938 130.363281 203.441406 C 131.230469 202.605469 131.628906 201.496094 132.183594 200.476562 C 133.28125 198.425781 134.421875 196.398438 135.511719 194.34375 C 136.488281 192.480469 137.75 190.757812 138.199219 188.742188 C 140.234375 186.984375 142.292969 185.351562 144.183594 183.535156 C 148.332031 179.554688 152.40625 175.503906 156.476562 171.441406 C 159.464844 168.453125 162.417969 165.425781 165.128906 162.175781 C 166.347656 160.714844 167.457031 159.1875 168.339844 157.511719 C 169.023438 156.207031 169.351562 154.792969 169.019531 153.230469 C 168.636719 152.9375 168.242188 152.632812 167.867188 152.34375 C 166.53125 152.367188 165.621094 152.765625 164.703125 153.25 C 162.414062 154.460938 160.542969 156.203125 158.628906 157.875 C 156.828125 159.453125 155.191406 161.214844 153.464844 162.890625 C 149.648438 166.605469 146.3125 170.726562 143.21875 175.050781 C 141.523438 177.410156 139.898438 179.832031 138.269531 182.234375 C 137.652344 183.132812 136.886719 183.945312 136.640625 185.054688 C 136.152344 185.472656 135.890625 186.039062 135.625 186.605469 C 134.15625 187.277344 132.695312 187.96875 131.203125 188.585938 C 127.558594 190.082031 123.90625 191.554688 120.242188 193.015625 C 118.125 193.863281 116.007812 194.707031 113.859375 195.476562 C 108.660156 197.347656 103.457031 199.234375 98.222656 201.019531 C 92.660156 202.90625 87.078125 204.746094 81.472656 206.492188 C 77.113281 207.851562 72.714844 209.070312 68.316406 210.296875 C 64.722656 211.300781 61.125 212.285156 57.492188 213.152344 C 53.390625 214.125 49.261719 215 45.128906 215.820312 C 40.316406 216.785156 35.464844 217.566406 30.59375 218.171875 C 26.953125 218.617188 23.324219 219.070312 19.652344 219.160156 C 17.230469 219.21875 14.808594 219.285156 12.394531 219.03125 C 9.601562 218.730469 7 217.933594 4.910156 216.382812 C 4.242188 215.339844 4.929688 214.5 4.917969 213.59375 C 4.214844 213.046875 3.507812 212.65625 2.65625 212.636719 C 2.042969 212.851562 1.457031 213.054688 0.867188 213.261719 C 0.605469 213.574219 0.339844 213.894531 0.148438 214.121094 L 0.15625 216.082031 C 0.449219 216.332031 0.6875 216.585938 0.980469 216.765625 C 1.449219 217.050781 1.945312 217.300781 2.449219 217.535156 C 2.886719 217.738281 3.367188 217.847656 3.792969 218.082031 C 7.28125 219.953125 11.058594 220.59375 14.964844 220.730469 C 17.808594 220.828125 20.632812 220.621094 23.453125 220.378906 C 28.691406 219.921875 33.894531 219.140625 39.070312 218.253906 C 42.75 217.628906 46.417969 216.929688 50.058594 216.140625 C 54.386719 215.195312 58.691406 214.171875 62.976562 213.074219 C 66.386719 212.203125 69.765625 211.183594 73.144531 210.191406 C 76.992188 209.074219 80.851562 207.980469 84.664062 206.746094 C 90.640625 204.808594 96.636719 202.910156 102.523438 200.691406 C 107.824219 198.695312 113.175781 196.835938 118.484375 194.855469 C 121.847656 193.597656 125.1875 192.246094 128.519531 190.910156 C 130.464844 190.128906 132.402344 189.324219 134.34375 188.53125 C 134.15625 188.8125 133.941406 189.066406 133.789062 189.355469 C 132.25 192.328125 130.464844 195.160156 128.890625 198.113281 C 127.175781 201.320312 125.496094 204.550781 123.894531 207.8125 C 123.453125 208.707031 123.269531 209.742188 123.101562 210.742188 C 123.03125 211.199219 123.230469 211.734375 123.417969 212.191406 C 123.578125 212.582031 123.90625 212.902344 124.109375 213.191406 C 124.839844 213.667969 125.597656 213.8125 126.25 213.382812 C 127.277344 212.714844 128.433594 212.203125 129.191406 211.164062 C 129.445312 210.816406 129.796875 210.53125 130.125 210.25 C 131.347656 209.210938 132.578125 208.175781 133.816406 207.164062 C 135.910156 205.464844 137.988281 203.746094 140.117188 202.09375 C 142.417969 200.304688 144.917969 198.808594 147.371094 197.222656 C 149.347656 195.949219 151.472656 195.050781 153.65625 194.265625 C 154.382812 194.003906 155.222656 193.972656 156.015625 193.972656 C 156.609375 193.964844 157.15625 194.234375 157.230469 195.054688 C 156.5625 195.554688 155.828125 195.953125 155.007812 196.285156 C 153.382812 196.933594 151.773438 197.644531 150.234375 198.464844 C 146.703125 200.355469 143.386719 202.597656 140.160156 204.972656 C 135.921875 208.089844 132.144531 211.71875 128.871094 215.835938 C 127.695312 217.308594 126.589844 218.855469 125.859375 220.617188 C 125.226562 222.136719 124.921875 223.675781 125.542969 225.65625 C 125.824219 225.941406 126.324219 226.453125 126.570312 226.699219 C 128.757812 227.347656 130.484375 226.992188 132.101562 226.300781 C 133.699219 225.613281 135.25 224.78125 136.746094 223.894531 C 139.6875 222.148438 142.464844 220.15625 145.171875 218.074219 C 147.890625 215.980469 150.511719 213.777344 152.820312 211.230469 C 153.648438 210.3125 154.367188 209.289062 155.253906 208.425781 C 156.738281 206.964844 157.433594 205.015625 158.582031 203.351562 C 158.945312 202.824219 159.1875 202.183594 159.375 201.558594 C 159.792969 200.164062 160.136719 198.75 160.507812 197.34375 C 160.632812 196.855469 160.738281 196.371094 160.839844 195.949219 C 161.125 195.78125 161.304688 195.636719 161.5 195.566406 C 163.496094 194.863281 165.480469 194.144531 167.492188 193.484375 C 171.445312 192.199219 175.472656 191.167969 179.59375 190.585938 C 181.347656 190.339844 183.089844 190.347656 184.757812 191.085938 C 184.855469 191.125 185.011719 191.042969 185.136719 191.019531 C 185.078125 190.257812 185.023438 190.074219 184.78125 189.914062 Z M 142.4375 182.273438 C 143.460938 180.597656 144.746094 179.085938 145.515625 177.257812 C 146.726562 176.171875 147.429688 174.710938 148.386719 173.433594 C 151.21875 169.652344 154.042969 165.859375 157.242188 162.378906 C 159.558594 159.863281 161.839844 157.304688 164.65625 155.320312 C 165.433594 154.773438 166.207031 154.28125 167.082031 154.074219 C 167.65625 154.753906 167.398438 155.328125 167.097656 155.796875 C 166.132812 157.335938 165.191406 158.894531 164.089844 160.332031 C 161.835938 163.277344 159.359375 166.039062 156.71875 168.640625 C 156.25 169.097656 155.824219 169.601562 155.371094 170.070312 C 151.472656 174.183594 147.5625 178.300781 143.542969 182.300781 C 143.15625 182.683594 142.703125 183 142.257812 183.371094 C 141.960938 182.851562 142.269531 182.542969 142.4375 182.273438 Z M 157.273438 198.816406 C 156.695312 200.386719 156.199219 202.011719 155.371094 203.453125 C 154.105469 205.644531 152.644531 207.726562 150.832031 209.550781 C 148.210938 212.1875 145.503906 214.738281 142.550781 216.96875 C 139.308594 219.421875 135.929688 221.703125 132.296875 223.5625 C 131.398438 224.027344 130.429688 224.378906 129.472656 224.71875 C 128.925781 224.914062 128.335938 224.992188 127.640625 224.574219 C 127.214844 223.949219 127.144531 223.347656 127.320312 222.660156 C 127.761719 220.9375 128.664062 219.445312 129.648438 217.996094 C 132.121094 214.347656 135.320312 211.390625 138.6875 208.597656 C 140.257812 207.304688 141.882812 206.070312 143.527344 204.886719 C 146.0625 203.054688 148.828125 201.605469 151.558594 200.105469 C 153.019531 199.296875 154.550781 198.613281 156.058594 197.886719 C 156.375 197.730469 156.726562 197.648438 157.21875 197.476562 C 157.246094 198.019531 157.394531 198.46875 157.273438 198.816406 Z M 157.273438 198.816406 " fill-opacity="1" fill-rule="nonzero"/></g></svg>